<svg height="512" viewBox="0 0 128 128" width="512" xmlns="http://www.w3.org/2000/svg"><g><path d="m92.75 22.56v98.94h-86.25v-115h70.19z" fill="#6aa8fb"/><g fill="#5c91d9"><path d="m12.5 29.917a1.75 1.75 0 0 1 -1.75-1.75v-8.792a1.75 1.75 0 0 1 3.5 0v8.792a1.75 1.75 0 0 1 -1.75 1.75z"/><path d="m72.187 60.933h-45.125a1.75 1.75 0 0 1 0-3.5h45.125a1.75 1.75 0 0 1 0 3.5z"/><path d="m72.187 71.6h-45.125a1.75 1.75 0 1 1 0-3.5h45.125a1.75 1.75 0 1 1 0 3.5z"/><path d="m66.375 82.26h-39.313a1.75 1.75 0 1 1 0-3.5h39.313a1.75 1.75 0 0 1 0 3.5z"/><path d="m66.375 92.923h-39.313a1.75 1.75 0 1 1 0-3.5h39.313a1.75 1.75 0 0 1 0 3.5z"/><path d="m72.187 103.587h-45.125a1.75 1.75 0 1 1 0-3.5h45.125a1.75 1.75 0 0 1 0 3.5z"/></g><g fill="#eaeaf0"><path d="m53.366 39.5c-1.956 0-1.806-2.3-3.741-2.3s-1.785 2.3-3.741 2.3c-3.311 0-4.042-2.6-3.4-5.16.253-1 1.806-7.57 7.138-7.57s6.885 6.566 7.138 7.57c.648 2.56-.083 5.16-3.394 5.16z"/><ellipse cx="54.407" cy="19.954" rx="4.539" ry="3.136" transform="matrix(.268 -.963 .963 .268 20.598 67.02)"/><ellipse cx="58.966" cy="26.402" rx="3.003" ry="2.262" transform="matrix(.707 -.707 .707 .707 -1.399 49.428)"/><ellipse cx="44.843" cy="19.954" rx="3.136" ry="4.539" transform="matrix(.963 -.268 .268 .963 -3.708 12.752)"/><ellipse cx="40.284" cy="26.402" rx="2.262" ry="3.003" transform="matrix(.707 -.707 .707 .707 -6.87 36.218)"/></g><g><path d="m82.863 75.01-3.736 4.48-1.929 11.683 11.146-3.998 3.735-4.48z" fill="#c7e554"/><path d="m111.479 37.783a6 6 0 0 1 6 6v18.557a0 0 0 0 1 0 0h-12a0 0 0 0 1 0 0v-18.557a6 6 0 0 1 6-6z" fill="#c7e554" transform="matrix(.768 .64 -.64 .768 57.921 -59.78)"/><path d="m92.137 43.575h12v44.974h-12z" fill="#eaeaf0" transform="matrix(.768 .64 -.64 .768 65.073 -47.524)"/><path d="m99.291 66.426a1.75 1.75 0 0 1 -1.343-2.871l7.926-9.5a1.75 1.75 0 0 1 2.688 2.242l-7.926 9.5a1.747 1.747 0 0 1 -1.345.629z" fill="#c9c9ce"/></g><path d="m92.75 22.56h-16.06v-16.06z" fill="#5c91d9"/></g></svg>